# Blender v2.90.0 OBJ File: 'chatimprovr_demo_room.blend'
# www.blender.org
mtllib br_walls.mtl
o Bowling_Alley_Plane.002
v -28.269032 -0.139859 27.558809
v 12.795398 -0.139859 27.558809
v -28.267120 -0.141144 14.748917
v 12.797309 -0.141144 14.748917
v 12.795398 9.991700 27.558809
v -28.269032 9.991700 14.756853
v 12.795398 9.991700 14.756853
v -28.269032 9.991700 27.558809
v 12.795398 9.991700 27.558809
v -28.269032 9.991700 14.756853
v 2.975154 -0.139859 27.558809
v 2.977065 -0.141144 14.748917
v 2.975154 9.991700 14.756853
v 2.975154 9.991700 27.558809
v 9.041371 -0.139859 27.558809
v 9.041371 9.991700 27.558809
v 9.041371 -0.139859 14.756853
v 9.041371 9.991700 14.756853
v 12.795398 8.998909 27.558809
v -28.269032 8.998909 27.558809
v -28.269032 8.998909 14.756853
v 2.975154 8.998909 27.558809
v 9.041371 8.998909 27.558809
v -28.269032 9.001596 14.756853
v 12.795398 9.001596 14.756853
v 12.795398 9.001596 27.558809
v 2.977065 9.000312 14.748917
v 9.043283 9.000312 14.748917
v 2.975154 -0.139859 13.953100
v -28.269032 -0.139859 13.953100
v 2.975154 9.991700 13.953100
v -28.269032 9.991700 13.953100
v -28.269032 9.001596 13.953100
v 12.795398 9.001596 13.953100
v 12.795398 9.991700 13.953100
v 9.041371 9.991700 13.953100
v 2.975154 9.001596 13.953100
v 12.795398 -0.139859 13.953100
v 9.041371 -0.139859 13.953100
v 9.041371 9.001596 13.953100
v 2.975154 -0.135263 13.948231
v 9.041371 -0.135263 13.948231
v 2.978976 9.989131 14.740979
v -28.265209 9.989131 14.740979
v -28.265209 8.999027 14.740979
v 12.799220 8.999027 14.740979
v 12.799220 9.989131 14.740979
v 9.045194 9.989131 14.740979
v 9.045194 -0.142429 14.740979
v -28.503090 -0.151254 27.631794
v 13.028924 -0.151268 27.631863
v -28.536499 -0.154316 14.706379
v 13.066243 -0.154331 14.706294
v 13.200776 9.991700 27.558809
v -28.555668 10.005661 14.756853
v 13.157973 10.000529 14.756853
v -28.555668 9.991700 27.648169
v 12.795398 9.991700 27.685186
v -28.674412 9.991700 14.756853
v 2.975464 -0.153817 27.648191
v 3.072189 -0.159705 14.717668
v 2.975154 10.011444 14.756853
v 2.975154 9.991700 27.685186
v 9.041186 -0.153817 27.648184
v 9.041371 9.991700 27.685186
v 8.942807 -0.159009 14.755457
v 9.041371 10.011444 14.756853
v 12.795398 8.998909 27.685186
v -28.555668 8.998909 27.648169
v -28.674412 8.998909 14.756853
v 2.975154 8.998909 27.685186
v 9.041371 8.998909 27.685186
v -28.674400 9.001596 14.756877
v 13.200776 9.001596 14.756845
v 13.200776 9.001596 27.558809
v 3.099705 8.994369 14.634630
v 8.920297 8.994373 14.634657
v 3.209324 -0.151194 13.879768
v -28.503365 -0.151191 13.879804
v 2.975154 10.005661 13.863740
v -28.503078 10.003099 13.880136
v -28.555695 9.001596 13.863748
v 13.082011 9.001596 13.863732
v 13.029443 10.003099 13.880136
v 9.041371 10.005661 13.863740
v 3.096285 8.995662 13.838639
v 13.029443 -0.151229 13.879954
v 8.807153 -0.151226 13.879993
v 8.920217 8.995654 13.838655
v 2.976069 -0.154989 13.942970
v 9.042287 -0.154989 13.942970
v 2.979051 9.989113 14.614605
v -28.265049 9.989119 14.614605
v -28.265049 8.999021 14.614605
v 12.798541 8.999022 14.614605
v 12.797849 9.989119 14.614605
v 9.044515 9.989113 14.614605
v 9.045194 -0.142429 14.614601
vt 0.908582 0.000000
vt 1.000000 0.000000
vt 1.000000 1.000000
vt 0.908582 1.000000
vt 0.000000 0.000000
vt 0.000000 0.000000
vt 0.000000 0.000000
vt 0.000000 0.000000
vt 1.000000 1.000000
vt 1.000000 0.000000
vt 1.000000 0.000000
vt 1.000000 1.000000
vt 0.760858 0.000000
vt 0.000000 0.000000
vt 0.000000 0.000000
vt 0.760858 0.000000
vt 0.000000 1.000000
vt 0.000000 1.000000
vt 0.908582 0.000000
vt 0.908582 0.000000
vt 0.000000 1.000000
vt 0.760858 1.000000
vt 0.760858 1.000000
vt 0.000000 1.000000
vt 0.000000 0.000000
vt 0.760858 0.000000
vt 1.000000 0.000000
vt 1.000000 0.000000
vt 0.000000 0.000000
vt 0.000000 0.000000
vt 1.000000 1.000000
vt 0.908582 1.000000
vt 0.000000 0.000000
vt 0.000000 0.000000
vt 0.000000 0.000000
vt 0.000000 0.000000
vt 0.908582 1.000000
vt 1.000000 1.000000
vt 1.000000 1.000000
vt 0.908582 1.000000
vt 0.000000 1.000000
vt 0.760858 1.000000
vt 0.760858 1.000000
vt 0.000000 1.000000
vt 0.000000 0.000000
vt 0.000000 0.000000
vt 0.000000 0.000000
vt 0.000000 0.000000
vt 0.000000 0.000000
vt 0.000000 0.000000
vt 0.000000 0.000000
vt 0.000000 0.000000
vt 0.000000 0.000000
vt 0.000000 0.000000
vt 0.908582 1.000000
vt 0.760858 1.000000
vt 0.908582 1.000000
vt 1.000000 1.000000
vt 1.000000 1.000000
vt 0.908582 1.000000
vt 0.000000 1.000000
vt 0.760858 1.000000
vt 0.760858 1.000000
vt 0.000000 1.000000
vt 0.908582 1.000000
vt 0.908582 0.000000
vt 0.908582 1.000000
vt 1.000000 1.000000
vt 1.000000 0.000000
vt 0.000000 0.000000
vt 0.000000 0.000000
vt 0.000000 0.000000
vt 0.000000 0.000000
vt 1.000000 1.000000
vt 1.000000 1.000000
vt 1.000000 0.000000
vt 1.000000 0.000000
vt 0.760858 0.000000
vt 0.760858 0.000000
vt 0.000000 0.000000
vt 0.000000 0.000000
vt 0.000000 1.000000
vt 0.000000 1.000000
vt 0.908582 0.000000
vt 0.908582 0.000000
vt 0.000000 1.000000
vt 0.000000 1.000000
vt 0.760858 1.000000
vt 0.760858 1.000000
vt 0.000000 0.000000
vt 0.760858 0.000000
vt 1.000000 0.000000
vt 1.000000 0.000000
vt 0.000000 0.000000
vt 0.000000 0.000000
vt 0.908582 1.000000
vt 1.000000 1.000000
vt 0.000000 0.000000
vt 0.000000 0.000000
vt 0.000000 0.000000
vt 0.000000 0.000000
vt 0.908582 1.000000
vt 0.908582 1.000000
vt 1.000000 1.000000
vt 1.000000 1.000000
vt 0.000000 1.000000
vt 0.000000 1.000000
vt 0.760858 1.000000
vt 0.760858 1.000000
vt 0.000000 0.000000
vt 0.000000 0.000000
vt 0.000000 0.000000
vt 0.000000 0.000000
vt 0.000000 0.000000
vt 0.000000 0.000000
vt 0.000000 0.000000
vt 0.000000 0.000000
vt 0.000000 0.000000
vt 0.000000 0.000000
vt 0.760858 1.000000
vt 0.908582 1.000000
vt 0.908582 1.000000
vt 0.908582 1.000000
vt 1.000000 1.000000
vt 1.000000 1.000000
vt 0.000000 1.000000
vt 0.000000 1.000000
vt 0.760858 1.000000
vt 0.760858 1.000000
vt 0.908582 1.000000
vn 0.0002 1.0000 -0.0001
vn 1.0000 0.0000 0.0000
vn -1.0000 0.0000 0.0000
vn 0.0000 0.0000 -1.0000
vn 0.0000 1.0000 0.0016
vn 0.0000 1.0000 -0.0001
vn 1.0000 0.0001 -0.0012
vn -0.0001 1.0000 -0.0001
vn 1.0000 0.0001 0.0001
vn 0.0002 1.0000 0.0008
vn -1.0000 -0.0001 -0.0001
vn -1.0000 0.0000 0.0024
vn 0.0000 0.0000 1.0000
vn 1.0000 -0.0001 -0.0012
vn 0.0000 -1.0000 0.0000
vn -1.0000 -0.0001 0.0012
vn -0.0001 1.0000 0.0065
vn 0.0011 0.0040 1.0000
vn -0.0001 0.0040 1.0000
vn 0.0000 0.0080 1.0000
vn -0.0001 0.0004 1.0000
vn 0.0009 -1.0000 0.0003
vn -0.9917 0.0855 -0.0961
vn 0.9998 0.0215 -0.0017
vn -0.0012 0.0000 1.0000
vn -1.0000 0.0000 0.0092
vn -0.0001 -1.0000 -0.0070
vn -0.0001 -1.0000 0.0003
vn -0.9961 -0.0102 -0.0880
vn 0.0001 -1.0000 0.0004
vn 0.0021 -0.0049 1.0000
vn 0.0000 -0.0040 1.0000
vn -0.9999 -0.0104 0.0059
vn -0.0008 -0.0029 1.0000
vn 0.0005 -1.0000 -0.0064
vn 0.9999 -0.0167 0.0015
vn 0.9967 0.0052 0.0816
vn 0.0051 0.0204 -0.9998
vn -0.0007 0.0206 -0.9998
vn 0.0000 0.0248 -0.9997
vn -0.0004 -0.0031 -1.0000
vn 0.0030 -0.0032 -1.0000
vn -0.9967 0.0056 0.0810
vn 0.9892 0.0483 -0.1382
vn 0.0017 1.0000 -0.0019
vn 0.9959 -0.0100 -0.0901
vn -0.0000 -1.0000 -0.0016
vn -0.0001 1.0000 -0.0047
vn 0.0000 1.0000 -0.0065
vn 0.0001 -1.0000 -0.0055
vn -0.0026 -0.0099 -0.9999
vn 0.0003 -0.0101 -0.9999
vn 0.0000 -0.0201 -0.9998
vn 0.0005 -0.0096 -1.0000
vn 0.0091 -0.0037 -1.0000
vn -0.0115 0.9999 0.0004
vn -0.0628 -0.0037 0.9980
vn 0.0000 1.0000 -0.0000
vn 0.6497 0.0105 -0.7602
vn 0.0628 0.0037 -0.9980
vn -0.1135 0.0050 0.9935
vn -0.4633 0.0057 0.8862
vn 0.0000 0.2577 -0.9662
vn -0.3649 -0.9309 0.0164
vn 0.3688 -0.9293 0.0177
vn 0.5334 0.0124 0.8458
vn 1.0000 0.0003 -0.0081
vn -1.0000 0.0000 -0.0013
vn -0.5319 0.0126 0.8467
vn -0.0023 -0.9972 0.0741
vn -0.8904 -0.0069 0.4552
usemtl None
s off
f 15/1/1 2/2/1 4/3/1 17/4/1
f 6/5/2 24/6/2 33/7/2 32/8/2
f 25/9/3 26/10/3 5/11/3 7/12/3
f 22/13/4 20/14/4 8/15/4 14/16/4
f 20/14/2 21/17/2 10/18/2 8/15/2
f 23/19/4 22/13/4 14/16/4 16/20/4
f 3/21/5 12/22/5 29/23/5 30/24/5
f 1/25/6 11/26/6 12/22/6 3/21/6
f 19/27/4 23/19/4 16/20/4 9/28/4
f 24/6/7 3/29/7 30/30/7 33/7/7
f 11/26/8 15/1/8 17/4/8 12/22/8
f 2/2/4 15/1/4 23/19/4 19/27/4
f 15/1/4 11/26/4 22/13/4 23/19/4
f 1/25/9 3/21/9 21/17/9 20/14/9
f 11/26/4 1/25/4 20/14/4 22/13/4
f 17/4/10 4/3/10 38/31/10 39/32/10
f 4/3/11 2/2/11 26/10/11 25/9/11
f 12/33/12 27/34/12 37/35/12 29/36/12
f 40/37/13 34/38/13 35/39/13 36/40/13
f 33/41/13 37/42/13 31/43/13 32/44/13
f 37/42/13 40/37/13 36/40/13 31/43/13
f 30/24/13 29/23/13 37/42/13 33/41/13
f 39/32/13 38/31/13 34/38/13 40/37/13
f 28/45/14 17/46/14 39/47/14 40/48/14
f 25/9/3 7/12/3 35/39/3 34/38/3
f 7/49/15 18/50/15 36/51/15 35/52/15
f 4/3/16 25/9/16 34/38/16 38/31/16
f 27/34/5 28/45/5 40/48/5 37/35/5
f 13/53/15 6/5/15 32/8/15 31/54/15
f 18/50/15 13/53/15 31/54/15 36/51/15
f 12/22/17 17/4/17 42/55/17 41/56/17
f 28/57/18 46/58/18 47/59/18 48/60/18
f 45/61/19 27/62/19 43/63/19 44/64/19
f 27/62/20 28/57/20 48/60/20 43/63/20
f 3/21/21 12/22/21 27/62/21 45/61/21
f 49/65/13 4/3/13 46/58/13 28/57/13
f 64/66/22 66/67/22 53/68/22 51/69/22
f 55/70/23 81/71/23 82/72/23 73/73/23
f 74/74/24 56/75/24 54/76/24 75/77/24
f 71/78/25 63/79/25 57/80/25 69/81/25
f 69/81/26 57/80/26 59/82/26 70/83/26
f 72/84/13 65/85/13 63/79/13 71/78/13
f 52/86/27 79/87/27 78/88/27 61/89/27
f 50/90/28 52/86/28 61/89/28 60/91/28
f 68/92/13 58/93/13 65/85/13 72/84/13
f 73/73/29 82/72/29 79/94/29 52/95/29
f 60/91/30 61/89/30 66/67/30 64/66/30
f 51/69/31 68/92/31 72/84/31 64/66/31
f 64/66/32 72/84/32 71/78/32 60/91/32
f 50/90/33 69/81/33 70/83/33 52/86/33
f 60/91/34 71/78/34 69/81/34 50/90/34
f 66/67/35 88/96/35 87/97/35 53/68/35
f 53/68/36 74/74/36 75/77/36 51/69/36
f 61/98/37 78/99/37 86/100/37 76/101/37
f 89/102/38 85/103/38 84/104/38 83/105/38
f 82/106/39 81/107/39 80/108/39 86/109/39
f 86/109/40 80/108/40 85/103/40 89/102/40
f 79/87/41 82/106/41 86/109/41 78/88/41
f 88/96/42 89/102/42 83/105/42 87/97/42
f 77/110/43 89/111/43 88/112/43 66/113/43
f 74/74/44 83/105/44 84/104/44 56/75/44
f 56/114/45 84/115/45 85/116/45 67/117/45
f 53/68/46 87/97/46 83/105/46 74/74/46
f 76/101/47 86/100/47 89/111/47 77/110/47
f 62/118/48 80/119/48 81/71/48 55/70/48
f 67/117/49 85/116/49 80/119/49 62/118/49
f 61/89/50 90/120/50 91/121/50 66/67/50
f 77/122/51 97/123/51 96/124/51 95/125/51
f 94/126/52 93/127/52 92/128/52 76/129/52
f 76/129/53 92/128/53 97/123/53 77/122/53
f 52/86/54 94/126/54 76/129/54 61/89/54
f 98/130/55 77/122/55 95/125/55 53/68/55
f 7/12/56 5/11/56 54/76/56 56/75/56
f 6/5/13 13/53/13 62/118/13 55/70/13
f 3/29/57 24/6/57 73/73/57 52/95/57
f 5/11/13 26/10/13 75/77/13 54/76/13
f 8/15/58 10/18/58 59/82/58 57/80/58
f 9/28/58 16/20/58 65/85/58 58/93/58
f 2/2/59 19/27/59 68/92/59 51/69/59
f 10/18/4 21/17/4 70/83/4 59/82/4
f 13/53/13 18/50/13 67/117/13 62/118/13
f 14/16/58 8/15/58 57/80/58 63/79/58
f 16/20/58 14/16/58 63/79/58 65/85/58
f 18/50/13 7/49/13 56/114/13 67/117/13
f 19/27/2 9/28/2 58/93/2 68/92/2
f 21/17/60 3/21/60 52/86/60 70/83/60
f 24/6/13 6/5/13 55/70/13 73/73/13
f 26/10/61 2/2/61 51/69/61 75/77/61
f 17/46/62 28/45/62 77/110/62 66/113/62
f 41/56/63 42/55/63 91/121/63 90/120/63
f 12/22/64 41/56/64 90/120/64 61/89/64
f 42/55/65 17/4/65 66/67/65 91/121/65
f 46/58/66 4/3/66 53/68/66 95/125/66
f 44/64/6 43/63/6 92/128/6 93/127/6
f 47/59/67 46/58/67 95/125/67 96/124/67
f 43/63/6 48/60/6 97/123/6 92/128/6
f 48/60/6 47/59/6 96/124/6 97/123/6
f 45/61/68 44/64/68 93/127/68 94/126/68
f 3/21/69 45/61/69 94/126/69 52/86/69
f 4/3/70 49/65/70 98/130/70 53/68/70
f 49/65/71 28/57/71 77/122/71 98/130/71
