# Blender v2.90.0 OBJ File: 'chatimprovr_demo_room.blend'
# www.blender.org
mtllib mr_walls.mtl
o Toy_Room_Plane
v 10.023217 -0.147721 -22.256382
v -17.975571 -0.147721 -22.256382
v 9.996142 -0.148452 -3.021084
v -17.960342 -0.148452 -3.021084
v 9.990423 9.946575 -22.256382
v -17.978544 9.946575 -22.256382
v -17.967402 9.946089 -3.023732
v 10.017449 9.945846 -3.021084
v 3.934749 -0.147721 -22.256382
v 3.934749 -0.147721 -3.029031
v 3.934749 9.946575 -22.256382
v 3.934749 9.946575 -3.029031
v 9.975588 7.951698 -3.029031
v -17.975571 7.951698 -3.029031
v 3.934749 7.951698 -3.029031
v 7.985295 -0.147721 -3.029031
v 7.985295 9.946575 -3.029031
v 7.985295 -0.147721 -22.256382
v 7.985295 9.946575 -22.256382
v 7.985295 7.951698 -3.029031
v 7.985295 -0.099209 -1.947105
v 9.980913 -0.099209 -1.947105
v 7.985295 9.995088 -1.947105
v 10.002220 9.995088 -1.947105
v 9.975588 8.000211 -1.947105
v -17.975571 8.000211 -1.947105
v -17.975571 9.995088 -1.947105
v 7.985295 -0.099209 -21.174458
v 3.934749 -0.099209 -21.174458
v -17.975571 -0.099209 -1.947105
v 3.934749 -0.099209 -1.947105
v 3.934749 9.995088 -1.947105
v 3.934749 8.000211 -1.947105
v 7.985295 8.000211 -1.947105
v 8.015754 -0.149182 -3.013136
v 8.015754 9.945115 -3.013136
v 10.006046 7.950237 -3.013136
v -17.945114 7.950237 -3.013136
v 3.965206 -0.149182 -3.013136
v 3.965206 9.945115 -3.013136
v 3.965206 7.950237 -3.013136
v 8.015754 7.950237 -3.013136
v 10.004517 -0.148226 -8.970893
v -17.965054 -0.148226 -8.970893
v 10.009089 9.946071 -8.970893
v 3.934749 -0.147721 -8.976381
v 7.985295 -0.147721 -8.976381
v -17.970848 9.946239 -8.972722
v 3.934749 -0.099209 -7.894457
v 7.985295 -0.099209 -7.894457
v 10.015917 -0.147918 -17.070583
v 9.997708 9.946379 -17.070583
v -17.971466 -0.147918 -17.070583
v 3.934749 -0.147721 -17.072725
v 7.985295 -0.147721 -17.072725
v -17.975540 9.946445 -17.071297
v 3.934749 -0.099209 -15.990800
v 7.985295 -0.099209 -15.990800
v -17.976780 3.006976 -22.256382
v 10.009901 3.006976 -22.256382
v -17.963207 3.006344 -3.022161
v 3.934749 3.006976 -22.256382
v 7.985295 3.006976 -22.256382
v 10.004795 3.006245 -3.021084
v 10.006373 3.006472 -8.970893
v -17.967407 3.006540 -8.971636
v 10.008523 3.006779 -17.070583
v -17.973120 3.006805 -17.070873
v 9.996883 7.958305 -22.256382
v 3.934749 7.958305 -22.256382
v 7.985295 7.958305 -22.256382
v 10.013252 7.957575 -3.021084
v 10.008188 7.957800 -8.970893
v -17.969707 7.957935 -8.972362
v 10.001295 7.958108 -17.070583
v -17.974737 7.958161 -17.071156
v -17.977959 7.958305 -22.256382
v -17.966011 7.957770 -3.023211
v -18.226654 3.006705 -17.070705
v -18.220940 3.006440 -8.971467
v -18.223240 7.957835 -8.972193
v -18.228271 7.958061 -17.070988
v 9.719740 -0.062545 -22.040089
v -17.672287 -0.062500 -22.040077
v 9.657276 -0.050206 -3.161643
v -17.622133 -0.049715 -3.160225
v 9.619340 9.946504 -21.991207
v -17.607109 9.946585 -21.991459
v -17.525442 9.886293 -3.157658
v 9.574849 9.886852 -3.156210
v 3.920948 -0.040552 -21.998871
v 3.439063 -0.098946 -3.029168
v 3.934749 9.946575 -21.881630
v 3.934749 9.799915 -2.986497
v 9.450411 7.951990 -3.030998
v -17.450394 7.951680 -3.027544
v 3.550682 8.051732 -3.057932
v 8.481012 -0.098968 -3.029122
v 7.985055 9.799920 -2.986418
v 7.999127 -0.040552 -21.998871
v 7.985295 9.946575 -21.881630
v 8.369360 8.051732 -3.057932
v 8.315699 -0.018132 -2.153219
v 9.675578 -0.019263 -2.174642
v 7.985118 9.884935 -2.196565
v 9.702431 9.904636 -2.151905
v 9.605451 8.000453 -2.212955
v -17.603512 8.000193 -2.211581
v -17.674948 9.904776 -2.151676
v 8.350079 0.006816 -21.189724
v 3.569964 0.006816 -21.189724
v -17.667767 -0.019651 -2.173818
v 3.604488 -0.018110 -2.153276
v 3.934749 9.884945 -2.196599
v 3.791312 8.043386 -2.290530
v 8.128731 8.043386 -2.290530
v 8.014295 -0.149155 -3.387876
v 8.015032 9.945061 -3.387876
v 10.004588 7.950196 -3.387876
v -17.944969 7.950178 -3.387876
v 3.965335 -0.149155 -3.387876
v 3.965287 9.945038 -3.387876
v 3.965303 7.950196 -3.387887
v 8.014776 7.950210 -3.387876
v 9.633337 -0.043800 -8.971030
v -17.593746 -0.043831 -8.971019
v 9.483912 9.946080 -8.970595
v 3.563376 -0.043349 -8.976370
v 8.356812 -0.043390 -8.976370
v -17.445671 9.946262 -8.972882
v 3.563393 0.005168 -7.894457
v 8.356650 0.005168 -7.894457
v 9.644528 -0.043551 -17.070721
v 9.472531 9.946316 -17.070286
v -17.600143 -0.043533 -17.070709
v 3.563376 -0.043345 -17.072714
v 8.356730 -0.043363 -17.072714
v -17.450363 9.946458 -17.071457
v 3.563393 0.005168 -15.990800
v 8.356650 0.005168 -15.990800
v -17.605328 3.006985 -21.991470
v 9.638529 3.006899 -21.991402
v -17.438030 3.006371 -3.022344
v 3.934749 3.006976 -21.881630
v 7.985295 3.006976 -21.881630
v 9.479618 3.006299 -3.021152
v 9.481180 3.006480 -8.970962
v -17.492558 3.051095 -9.084917
v 9.483346 3.006711 -17.070652
v -17.498062 3.051324 -16.957933
v 9.625607 7.958241 -21.991344
v 3.934749 7.958305 -21.881630
v 7.985295 7.958305 -21.881630
v 9.488075 7.957620 -3.020901
v 9.483011 7.957809 -8.970710
v -17.494665 7.913441 -9.085392
v 9.476118 7.958050 -17.070400
v -17.499504 7.913701 -16.958469
v -17.606525 7.958314 -21.991459
v -17.440834 7.957793 -3.023372
v -17.923450 3.091999 -16.854527
v -17.918152 3.091733 -9.187955
v -17.920021 7.872686 -9.188726
v -17.924650 7.872898 -16.854763
vt 0.186885 0.690683
vt 0.186885 1.000000
vt 1.000000 1.000000
vt 1.000000 0.690683
vt 0.036564 0.000000
vt 0.036564 0.000000
vt 0.000000 0.000000
vt 0.000000 0.000000
vt 1.000000 0.269598
vt 1.000000 0.269598
vt 1.000000 0.000000
vt 1.000000 0.000000
vt 0.036564 0.269598
vt 0.036564 0.269598
vt 0.036564 0.000000
vt 0.036564 0.000000
vt 0.000000 0.690683
vt 0.000000 0.690683
vt 0.000000 1.000000
vt 0.000000 1.000000
vt 0.000000 0.000000
vt 0.000000 0.000000
vt 0.000000 0.000000
vt 0.000000 0.000000
vt 0.186884 0.000000
vt 0.186884 0.000000
vt 0.000000 0.000000
vt 0.000000 0.000000
vt 0.000000 0.000000
vt 0.000000 0.000000
vt 0.000000 0.000000
vt 0.000000 0.000000
vt 0.000000 0.000000
vt 0.000000 0.000000
vt 0.000000 0.690683
vt 0.000000 1.000000
vt 0.036564 1.000000
vt 0.036564 0.690683
vt 0.186885 1.000000
vt 1.000000 1.000000
vt 0.186884 1.000000
vt 0.186884 1.000000
vt 1.000000 1.000000
vt 1.000000 1.000000
vt 0.036564 1.000000
vt 0.036564 1.000000
vt 0.036564 0.690683
vt 0.036564 1.000000
vt 0.186885 0.690683
vt 0.000000 1.000000
vt 0.000000 1.000000
vt 0.000000 1.000000
vt 0.000000 0.000000
vt 0.000000 0.000000
vt 0.000000 0.000000
vt 0.000000 0.000000
vt 0.000000 0.000000
vt 0.000000 0.000000
vt 0.000000 0.000000
vt 0.000000 0.000000
vt 0.000000 0.000000
vt 0.000000 0.000000
vt 0.186885 0.000000
vt 0.186885 0.000000
vt 0.000000 0.000000
vt 0.000000 0.000000
vt 0.186884 1.000000
vt 0.186884 1.000000
vt 1.000000 1.000000
vt 1.000000 1.000000
vt 0.036564 1.000000
vt 0.036564 1.000000
vt 0.186885 1.000000
vt 0.000000 1.000000
vt 0.036564 1.000000
vt 0.186884 0.269598
vt 0.186885 0.269598
vt 0.000000 0.269598
vt 0.000000 0.269598
vt 0.000000 0.269598
vt 1.000000 1.000000
vt 1.000000 0.690683
vt 1.000000 0.690683
vt 1.000000 0.269598
vt 1.000000 0.000000
vt 0.000000 0.000000
vt 1.000000 0.690683
vt 1.000000 0.269598
vt 0.000000 0.000000
vt 0.000000 0.269598
vt 1.000000 1.000000
vt 0.000000 0.690683
vt 0.186884 0.000000
vt 0.036564 0.000000
vt 1.000000 0.000000
vt 0.000000 1.000000
vt 1.000000 0.269598
vt 1.000000 0.690683
vt 1.000000 0.690683
vt 1.000000 0.269598
vt 0.186885 0.690683
vt 1.000000 0.690683
vt 1.000000 1.000000
vt 0.186885 1.000000
vt 0.036564 0.000000
vt 0.000000 0.000000
vt 0.000000 0.000000
vt 0.036564 0.000000
vt 1.000000 0.269598
vt 1.000000 0.000000
vt 1.000000 0.000000
vt 1.000000 0.269598
vt 0.036564 0.269598
vt 0.036564 0.000000
vt 0.036564 0.000000
vt 0.036564 0.269598
vt 0.000000 0.690683
vt 0.000000 1.000000
vt 0.000000 1.000000
vt 0.000000 0.690683
vt 0.000000 0.000000
vt 0.000000 0.000000
vt 0.000000 0.000000
vt 0.000000 0.000000
vt 0.186884 0.000000
vt 0.186884 0.000000
vt 0.000000 0.000000
vt 0.000000 0.000000
vt 0.000000 0.000000
vt 0.000000 0.000000
vt 0.000000 0.000000
vt 0.000000 0.000000
vt 0.000000 0.000000
vt 0.000000 0.000000
vt 0.000000 0.690683
vt 0.036564 0.690683
vt 0.036564 1.000000
vt 0.000000 1.000000
vt 1.000000 1.000000
vt 0.186885 1.000000
vt 0.186884 1.000000
vt 1.000000 1.000000
vt 1.000000 1.000000
vt 0.186884 1.000000
vt 0.036564 1.000000
vt 0.036564 1.000000
vt 0.036564 0.690683
vt 0.186885 0.690683
vt 0.036564 1.000000
vt 0.000000 1.000000
vt 0.000000 1.000000
vt 0.000000 1.000000
vt 0.000000 0.000000
vt 0.000000 0.000000
vt 0.000000 0.000000
vt 0.000000 0.000000
vt 0.000000 0.000000
vt 0.000000 0.000000
vt 0.000000 0.000000
vt 0.000000 0.000000
vt 0.000000 0.000000
vt 0.000000 0.000000
vt 0.186885 0.000000
vt 0.186885 0.000000
vt 0.000000 0.000000
vt 0.000000 0.000000
vt 0.186884 1.000000
vt 1.000000 1.000000
vt 1.000000 1.000000
vt 0.186884 1.000000
vt 0.036564 1.000000
vt 0.036564 1.000000
vt 0.186885 1.000000
vt 0.036564 1.000000
vt 0.000000 1.000000
vt 0.186884 0.269598
vt 0.186885 0.269598
vt 0.000000 0.269598
vt 0.000000 0.269598
vt 0.000000 0.269598
vt 1.000000 1.000000
vt 1.000000 0.690683
vt 1.000000 0.690683
vt 1.000000 0.269598
vt 1.000000 0.000000
vt 0.000000 0.000000
vt 1.000000 0.269598
vt 1.000000 0.690683
vt 0.000000 0.269598
vt 0.000000 0.000000
vt 1.000000 1.000000
vt 0.000000 0.690683
vt 0.036564 0.000000
vt 0.186884 0.000000
vt 1.000000 0.000000
vt 0.000000 1.000000
vt 1.000000 0.690683
vt 1.000000 0.269598
vt 1.000000 0.690683
vt 1.000000 0.269598
vn 0.0000 -1.0000 -0.0000
vn 0.0000 0.0000 -1.0000
vn -1.0000 -0.0003 0.0006
vn -1.0000 -0.0000 0.0000
vn 1.0000 -0.0013 -0.0011
vn -0.0000 0.9990 -0.0451
vn 1.0000 0.0000 0.0000
vn 0.0000 -0.9990 0.0448
vn -0.0003 -1.0000 -0.0000
vn 0.0000 -0.9990 0.0453
vn 0.0000 0.0000 1.0000
vn 0.0003 0.9990 -0.0453
vn 1.0000 0.0016 0.0070
vn 0.0000 0.9990 -0.0448
vn -1.0000 0.0021 -0.0039
vn -0.0003 -0.9990 0.0453
vn 0.9998 -0.0172 0.0078
vn -1.0000 -0.0009 -0.0070
vn -0.0002 0.0027 1.0000
vn -0.0002 -0.0005 1.0000
vn 0.0020 -0.0005 1.0000
vn 0.0020 0.0020 1.0000
vn -0.0002 -1.0000 -0.0000
vn 1.0000 0.0007 -0.0011
vn -1.0000 -0.0006 0.0006
vn 1.0000 0.0025 -0.0011
vn -1.0000 -0.0005 0.0006
vn -1.0000 -0.0006 0.0007
vn 1.0000 0.0033 0.0008
vn -1.0000 -0.0008 0.0007
vn 1.0000 0.0009 0.0008
vn 1.0000 -0.0017 0.0008
vn -1.0000 -0.0005 0.0007
vn -0.0004 1.0000 0.0000
vn 1.0000 0.0020 -0.0003
vn 1.0000 0.0005 -0.0003
vn 1.0000 -0.0010 -0.0003
vn -1.0000 -0.0003 0.0007
vn -1.0000 -0.0004 0.0007
vn 0.0004 -1.0000 -0.0000
vn -0.0007 -0.0001 -1.0000
vn 0.0007 0.0001 1.0000
vn 0.0011 1.0000 0.0052
vn 0.0668 0.0001 0.9978
vn 0.9996 -0.0128 -0.0265
vn 0.3236 -0.9461 -0.0121
vn -0.9997 0.0227 0.0083
vn -0.0026 -0.9984 0.0573
vn -0.0051 -0.0000 1.0000
vn 0.9708 0.0203 0.2389
vn -0.9708 0.0203 0.2390
vn 0.0000 0.9999 0.0109
vn -0.0194 0.9998 0.0055
vn 0.0013 0.9982 -0.0595
vn -0.0029 0.0411 -0.9992
vn 0.0000 0.0509 -0.9987
vn 0.0000 1.0000 0.0041
vn -0.0014 -0.0109 -0.9999
vn 0.0196 -0.0106 -0.9998
vn 0.0385 0.0418 -0.9984
vn 0.0342 -0.9979 0.0547
vn -0.9952 -0.0178 0.0964
vn -0.0000 -0.9958 0.0919
vn 0.9859 0.0406 0.1623
vn -0.0000 -0.9943 0.1070
vn -0.0225 0.9978 -0.0616
vn -0.6222 0.7829 0.0009
vn -0.9868 0.0594 0.1509
vn 0.0000 0.9983 -0.0584
vn 0.9938 -0.0153 0.1103
vn -0.0054 0.0590 -0.9982
vn -0.0053 -0.0142 -0.9999
vn 0.0626 -0.0154 -0.9979
vn 0.0661 0.0659 -0.9956
vn -1.0000 0.0003 0.0000
vn 0.0000 1.0000 0.0000
vn 0.0002 1.0000 0.0000
vn -1.0000 -0.0007 0.0011
vn 0.6222 0.7828 0.0009
vn 1.0000 0.0090 0.0022
vn -0.0005 1.0000 -0.0016
vn -0.9995 -0.0025 -0.0301
vn 0.0073 1.0000 -0.0018
vn 0.0000 1.0000 0.0003
vn -0.3234 -0.9462 -0.0120
vn 1.0000 0.0026 -0.0000
vn 0.9997 -0.0241 -0.0006
vn 0.9995 -0.0328 -0.0007
vn -0.9990 -0.0394 -0.0232
vn 0.9989 -0.0463 -0.0024
vn -0.9987 -0.0513 -0.0008
vn 0.0000 -0.0384 0.9993
vn -0.0035 -0.0271 0.9996
vn -0.9985 -0.0540 0.0019
vn 0.9995 -0.0269 -0.0178
vn 0.0445 -0.0264 0.9987
vn 0.0955 -0.9954 -0.0001
vn -0.9995 -0.0020 -0.0309
vn 1.0000 0.0005 -0.0089
vn -1.0000 -0.0005 0.0003
vn -1.0000 0.0010 0.0003
vn 0.9998 0.0003 -0.0213
vn 0.0665 0.0001 0.9978
vn 1.0000 0.0003 -0.0006
vn 0.0951 0.9955 -0.0000
vn 0.2366 0.0001 0.9716
vn 0.2357 -0.0000 -0.9718
vn 0.1622 -0.0265 0.9864
vn -0.0505 0.4982 -0.8656
vn 0.1638 0.0098 -0.9864
vn -0.0001 1.0000 0.0000
vn 0.1423 -0.0355 -0.9892
vn -0.1585 0.0092 -0.9873
vn 0.0327 -0.0020 -0.9995
vn -0.0000 0.0023 1.0000
vn 0.0000 -0.2788 -0.9604
vn 0.0000 1.0000 0.0001
vn 0.0000 -0.2776 -0.9607
vn -0.0326 -0.0020 -0.9995
vn 0.0624 0.9980 0.0055
vn -0.1402 0.0374 0.9894
vn 0.8319 -0.0260 -0.5544
vn -0.8329 -0.0235 -0.5529
vn 0.7422 0.1165 -0.6599
vn -0.0032 -0.9816 -0.1908
vn 0.0397 -0.9764 -0.2124
vn 0.0245 0.9904 -0.1360
vn 1.0000 0.0000 0.0003
vn -0.0000 1.0000 -0.0002
vn 0.0000 -1.0000 0.0001
vn -1.0000 0.0000 0.0033
vn -0.1376 -0.0338 -0.9899
vn 0.0043 0.4125 -0.9110
vn -0.7435 0.1119 -0.6593
vn -0.0019 0.9929 -0.1185
vn -0.0616 0.9981 0.0056
vn 0.0003 0.0002 1.0000
vn -0.1635 -0.0268 0.9862
vn 0.0001 -0.0000 1.0000
vn 0.1395 0.0371 0.9895
usemtl None
s off
f 46/1/1 10/2/1 4/3/1 44/4/1
f 71/5/2 19/6/2 5/7/2 69/8/2
f 76/9/3 56/10/3 6/11/3 77/12/3
f 55/13/4 58/14/4 28/15/4 18/16/4
f 73/17/5 45/18/5 8/19/5 72/20/5
f 7/21/6 27/22/6 32/23/6 12/24/6
f 77/12/2 6/11/2 11/25/2 70/26/2
f 16/27/4 21/28/4 34/29/4 20/30/4
f 15/31/7 33/32/7 31/33/7 10/34/7
f 20/30/8 34/29/8 33/32/8 15/31/8
f 43/35/9 3/36/9 16/37/9 47/38/9
f 10/2/10 31/39/10 30/40/10 4/3/10
f 70/26/2 11/25/2 19/6/2 71/5/2
f 33/41/11 32/42/11 27/43/11 26/44/11
f 34/45/11 23/46/11 32/42/11 33/41/11
f 50/47/1 21/48/1 31/39/1 49/49/1
f 31/39/11 33/41/11 26/44/11 30/40/11
f 22/50/11 25/51/11 34/45/11 21/48/11
f 25/51/11 24/52/11 23/46/11 34/45/11
f 17/53/12 23/54/12 24/55/12 8/56/12
f 13/57/13 25/58/13 22/59/13 3/60/13
f 10/34/14 31/33/14 21/28/14 16/27/14
f 14/61/15 26/62/15 27/22/15 7/21/15
f 12/24/14 32/23/14 23/54/14 17/53/14
f 3/36/16 22/50/16 21/48/16 16/37/16
f 46/1/7 49/49/7 31/39/7 10/2/7
f 8/56/17 24/55/17 25/58/17 13/57/17
f 18/16/8 28/15/8 29/63/8 9/64/8
f 4/65/18 30/66/18 26/62/18 14/61/18
f 41/67/19 40/68/19 7/69/19 38/70/19
f 42/71/11 36/72/11 40/68/11 41/67/11
f 39/73/20 41/67/20 38/70/20 4/3/20
f 3/36/21 37/74/21 42/71/21 35/75/21
f 37/74/22 8/19/22 36/72/22 42/71/22
f 54/76/7 57/77/7 49/49/7 46/1/7
f 58/14/1 50/47/1 49/49/1 57/77/1
f 51/78/23 43/35/23 47/38/23 55/13/23
f 75/79/24 52/80/24 45/18/24 73/17/24
f 16/37/4 21/48/4 50/47/4 47/38/4
f 78/81/25 7/69/25 48/82/25 74/83/25
f 54/76/1 46/1/1 44/4/1 53/84/1
f 9/64/1 54/76/1 53/84/1 2/85/1
f 69/8/26 5/7/26 52/80/26 75/79/26
f 1/86/1 51/78/1 55/13/1 18/16/1
f 28/15/1 58/14/1 57/77/1 29/63/1
f 9/64/7 29/63/7 57/77/7 54/76/7
f 47/38/4 50/47/4 58/14/4 55/13/4
f 74/83/27 48/82/27 56/10/27 76/9/27
f 44/4/28 66/87/28 68/88/28 53/84/28
f 1/86/29 60/89/29 67/90/29 51/78/29
f 4/3/30 61/91/30 66/87/30 44/4/30
f 51/78/31 67/90/31 65/92/31 43/35/31
f 9/64/2 62/93/2 63/94/2 18/16/2
f 2/85/2 59/95/2 62/93/2 9/64/2
f 43/35/32 65/92/32 64/96/32 3/36/32
f 53/84/33 68/88/33 59/95/33 2/85/33
f 18/16/2 63/94/2 60/89/2 1/86/2
f 76/9/34 82/97/34 81/98/34 74/83/34
f 60/89/35 69/8/35 75/79/35 67/90/35
f 61/91/33 78/81/33 74/83/33 66/87/33
f 67/90/36 75/79/36 73/17/36 65/92/36
f 62/93/2 70/26/2 71/5/2 63/94/2
f 59/95/2 77/12/2 70/26/2 62/93/2
f 65/92/37 73/17/37 72/20/37 64/96/37
f 68/88/38 76/9/38 77/12/38 59/95/38
f 63/94/2 71/5/2 69/8/2 60/89/2
f 80/99/39 81/98/39 82/97/39 79/100/39
f 66/87/40 80/99/40 79/100/40 68/88/40
f 68/88/41 79/100/41 82/97/41 76/9/41
f 74/83/42 81/98/42 80/99/42 66/87/42
f 128/101/43 126/102/43 86/103/43 92/104/43
f 153/105/44 151/106/44 87/107/44 101/108/44
f 158/109/45 159/110/45 88/111/45 138/112/45
f 137/113/46 100/114/46 110/115/46 140/116/46
f 155/117/47 154/118/47 90/119/47 127/120/47
f 89/121/48 94/122/48 114/123/48 109/124/48
f 159/110/49 152/125/49 93/126/49 88/111/49
f 98/127/50 102/128/50 116/129/50 103/130/50
f 97/131/51 92/132/51 113/133/51 115/134/51
f 102/128/52 97/131/52 115/134/52 116/129/52
f 125/135/53 129/136/53 98/137/53 85/138/53
f 92/104/54 86/103/54 112/139/54 113/140/54
f 152/125/11 153/105/11 101/108/11 93/126/11
f 115/141/55 108/142/55 109/143/55 114/144/55
f 116/145/56 115/141/56 114/144/56 105/146/56
f 132/147/57 131/148/57 113/140/57 103/149/57
f 113/140/58 112/139/58 108/142/58 115/141/58
f 104/150/59 103/149/59 116/145/59 107/151/59
f 107/151/60 116/145/60 105/146/60 106/152/60
f 99/153/61 90/154/61 106/155/61 105/156/61
f 95/157/62 85/158/62 104/159/62 107/160/62
f 92/132/63 98/127/63 103/130/63 113/133/63
f 96/161/64 89/121/64 109/124/64 108/162/64
f 94/122/65 99/153/65 105/156/65 114/123/65
f 85/138/66 98/137/66 103/149/66 104/150/66
f 128/101/67 92/104/67 113/140/67 131/148/67
f 90/154/68 95/157/68 107/160/68 106/155/68
f 100/114/69 91/163/69 111/164/69 110/115/69
f 86/165/70 96/161/70 108/162/70 112/166/70
f 123/167/71 120/168/71 89/169/71 122/170/71
f 124/171/2 123/167/2 122/170/2 118/172/2
f 121/173/72 86/103/72 120/168/72 123/167/72
f 85/138/73 117/174/73 124/171/73 119/175/73
f 119/175/74 124/171/74 118/172/74 90/119/74
f 136/176/75 128/101/75 131/148/75 139/177/75
f 140/116/76 139/177/76 131/148/76 132/147/76
f 133/178/77 137/113/77 129/136/77 125/135/77
f 157/179/78 155/117/78 127/120/78 134/180/78
f 98/137/79 129/136/79 132/147/79 103/149/79
f 160/181/80 156/182/80 130/183/80 89/169/80
f 136/176/76 135/184/76 126/102/76 128/101/76
f 91/163/81 84/185/81 135/184/81 136/176/81
f 151/106/82 157/179/82 134/180/82 87/107/82
f 83/186/83 100/114/83 137/113/83 133/178/83
f 110/115/84 111/164/84 139/177/84 140/116/84
f 91/163/85 136/176/85 139/177/85 111/164/85
f 129/136/86 137/113/86 140/116/86 132/147/86
f 156/182/87 158/109/87 138/112/87 130/183/87
f 126/102/88 135/184/88 150/187/88 148/188/88
f 83/186/89 133/178/89 149/189/89 142/190/89
f 86/103/90 126/102/90 148/188/90 143/191/90
f 133/178/91 125/135/91 147/192/91 149/189/91
f 91/163/92 100/114/92 145/193/92 144/194/92
f 84/185/93 91/163/93 144/194/93 141/195/93
f 125/135/94 85/138/94 146/196/94 147/192/94
f 135/184/95 84/185/95 141/195/95 150/187/95
f 100/114/96 83/186/96 142/190/96 145/193/96
f 158/109/97 156/182/97 163/197/97 164/198/97
f 142/190/98 149/189/98 157/179/98 151/106/98
f 143/191/99 148/188/99 156/182/99 160/181/99
f 149/189/100 147/192/100 155/117/100 157/179/100
f 144/194/11 145/193/11 153/105/11 152/125/11
f 141/195/49 144/194/49 152/125/49 159/110/49
f 147/192/101 146/196/101 154/118/101 155/117/101
f 150/187/102 141/195/102 159/110/102 158/109/102
f 145/193/103 142/190/103 151/106/103 153/105/103
f 162/199/104 161/200/104 164/198/104 163/197/104
f 148/188/105 150/187/105 161/200/105 162/199/105
f 150/187/106 158/109/106 164/198/106 161/200/106
f 156/182/107 148/188/107 162/199/107 163/197/107
f 6/11/76 88/111/76 93/126/76 11/25/76
f 4/3/108 86/103/108 143/191/108 61/91/108
f 8/56/109 90/154/109 99/153/109 17/53/109
f 3/60/110 85/158/110 95/157/110 13/57/110
f 5/7/111 87/107/111 134/180/111 52/80/111
f 11/25/76 93/126/76 101/108/76 19/6/76
f 13/57/112 95/157/112 90/154/112 8/56/112
f 14/61/113 96/161/113 86/165/113 4/65/113
f 10/34/114 92/132/114 97/131/114 15/31/114
f 16/27/115 98/127/115 92/132/115 10/34/115
f 17/53/116 99/153/116 94/122/116 12/24/116
f 19/6/117 101/108/117 87/107/117 5/7/117
f 15/31/118 97/131/118 102/128/118 20/30/118
f 20/30/119 102/128/119 98/127/119 16/27/119
f 7/69/120 89/169/120 130/183/120 48/82/120
f 8/19/121 90/119/121 154/118/121 72/20/121
f 3/36/122 85/138/122 119/175/122 37/74/122
f 38/70/123 120/168/123 86/103/123 4/3/123
f 37/74/124 119/175/124 90/119/124 8/19/124
f 4/3/125 86/103/125 121/173/125 39/73/125
f 35/75/126 117/174/126 85/138/126 3/36/126
f 8/19/127 90/119/127 118/172/127 36/72/127
f 39/73/128 121/173/128 123/167/128 41/67/128
f 36/72/129 118/172/129 122/170/129 40/68/129
f 41/67/130 123/167/130 124/171/130 42/71/130
f 42/71/131 124/171/131 117/174/131 35/75/131
f 7/21/132 89/121/132 96/161/132 14/61/132
f 12/24/133 94/122/133 89/121/133 7/21/133
f 7/69/134 89/169/134 120/168/134 38/70/134
f 40/68/135 122/170/135 89/169/135 7/69/135
f 45/18/136 127/120/136 90/119/136 8/19/136
f 48/82/76 130/183/76 138/112/76 56/10/76
f 52/80/111 134/180/111 127/120/111 45/18/111
f 56/10/76 138/112/76 88/111/76 6/11/76
f 61/91/137 143/191/137 160/181/137 78/81/137
f 64/96/138 146/196/138 85/138/138 3/36/138
f 72/20/139 154/118/139 146/196/139 64/96/139
f 78/81/140 160/181/140 89/169/140 7/69/140
