# Blender v2.90.0 OBJ File: 'chatimprovr_demo_room.blend'
# www.blender.org
mtllib table_mr.mtl
o Table_Cube.024
v 1.865743 2.191868 -13.982206
v 1.865743 2.595895 -13.982206
v 1.865743 2.191868 -17.932835
v 1.865743 2.595895 -17.932835
v 9.860664 2.191868 -13.982206
v 9.860664 2.595895 -13.982206
v 9.860664 2.191868 -17.932835
v 9.860664 2.595895 -17.932835
v 9.443188 2.191868 -17.932835
v 9.443188 2.595895 -17.932835
v 9.443188 2.191868 -13.982206
v 9.443188 2.595895 -13.982206
v 2.266870 2.191868 -17.932835
v 2.266870 2.595895 -13.982206
v 2.266870 2.595895 -17.932835
v 2.266870 2.191868 -13.982206
v 1.865743 2.191868 -17.555019
v 1.865743 2.595895 -17.555019
v 9.860664 2.191868 -17.555019
v 9.860664 2.595895 -17.555019
v 9.443188 2.595895 -17.555019
v 9.443188 2.191868 -17.555019
v 2.266870 2.191868 -17.555019
v 2.266870 2.595895 -17.555019
v 1.865743 2.191868 -14.355058
v 9.860664 2.595895 -14.355058
v 9.443188 2.595895 -14.355058
v 9.443188 2.191868 -14.355058
v 2.266870 2.191868 -14.355058
v 2.266870 2.595895 -14.355058
v 1.865743 2.595895 -14.355058
v 9.860664 2.191868 -14.355058
v 5.855029 2.595895 -17.932835
v 5.855029 2.191868 -13.982206
v 5.855029 2.191868 -17.932835
v 5.855029 2.595895 -13.982206
v 5.855029 2.595895 -17.555019
v 5.855029 2.191868 -17.555019
v 5.855029 2.595895 -14.355058
v 5.855029 2.191868 -14.355058
v 1.865743 -0.008132 -14.355058
v 1.865743 -0.008132 -13.982206
v 2.266870 -0.008132 -17.932835
v 1.865743 -0.008132 -17.932835
v 9.860664 -0.008132 -17.555019
v 9.860664 -0.008132 -17.932835
v 9.443188 -0.008132 -13.982206
v 9.860664 -0.008132 -13.982206
v 9.443188 -0.008132 -17.932835
v 9.443188 -0.008132 -14.355058
v 2.266870 -0.008132 -13.982206
v 2.266870 -0.008132 -14.355058
v 1.865743 -0.008132 -17.555019
v 9.443188 -0.008132 -17.555019
v 2.266870 -0.008132 -17.555019
v 9.860664 -0.008132 -14.355058
vt 0.375000 0.226091
vt 0.625000 0.226091
vt 0.625000 0.250000
vt 0.375000 0.250000
vt 0.375000 0.474438
vt 0.625000 0.474438
vt 0.625000 0.500000
vt 0.375000 0.500000
vt 0.375000 0.726406
vt 0.625000 0.726406
vt 0.625000 0.750000
vt 0.375000 0.750000
vt 0.375000 0.974949
vt 0.625000 0.974949
vt 0.625000 1.000000
vt 0.375000 1.000000
vt 0.375000 0.523908
vt 0.375000 0.523908
vt 0.375000 0.500000
vt 0.849949 0.726406
vt 0.875000 0.726406
vt 0.875000 0.750000
vt 0.849949 0.750000
vt 0.650562 0.726406
vt 0.650562 0.750000
vt 0.249744 0.726406
vt 0.349438 0.726406
vt 0.349438 0.750000
vt 0.249744 0.750000
vt 0.625000 0.775562
vt 0.375000 0.775562
vt 0.375000 0.374744
vt 0.625000 0.374744
vt 0.625000 0.275051
vt 0.375000 0.275051
vt 0.375000 0.750000
vt 0.375000 0.726406
vt 0.750256 0.726406
vt 0.750256 0.750000
vt 0.375000 0.875256
vt 0.625000 0.875256
vt 0.750256 0.500000
vt 0.849949 0.500000
vt 0.849949 0.523908
vt 0.750256 0.523908
vt 0.349438 0.726406
vt 0.249744 0.500000
vt 0.349438 0.500000
vt 0.349438 0.523908
vt 0.249744 0.523908
vt 0.650562 0.500000
vt 0.650562 0.523908
vt 0.625000 0.523908
vt 0.875000 0.500000
vt 0.875000 0.523908
vt 0.375000 0.250000
vt 0.375000 0.226091
vt 0.375000 0.023594
vt 0.625000 0.023594
vt 0.375000 0.000000
vt 0.625000 0.000000
vt 0.125000 0.523908
vt 0.150051 0.523908
vt 0.150051 0.726406
vt 0.125000 0.726406
vt 0.150051 0.500000
vt 0.150051 0.750000
vt 0.349438 0.750000
vt 0.125000 0.726406
vt 0.150051 0.726406
vt 0.150051 0.750000
vt 0.125000 0.750000
vt 0.125000 0.500000
vt 0.150051 0.500000
vt 0.150051 0.523908
vt 0.125000 0.523908
vt 0.349438 0.500000
vt 0.349438 0.523908
vt 0.375000 0.023594
vt 0.375000 0.000000
vt 0.375000 1.000000
vt 0.375000 0.974949
vt 0.375000 0.775562
vt 0.375000 0.275051
vt 0.375000 0.474438
vn -1.0000 0.0000 0.0000
vn 0.0000 0.0000 -1.0000
vn 1.0000 0.0000 0.0000
vn 0.0000 0.0000 1.0000
vn 0.0000 1.0000 0.0000
vn 0.0000 -1.0000 0.0000
usemtl None
s off
f 17/1/1 18/2/1 4/3/1 3/4/1
f 9/5/2 10/6/2 8/7/2 7/8/2
f 32/9/3 26/10/3 6/11/3 5/12/3
f 16/13/4 14/14/4 2/15/4 1/16/4
f 7/8/3 19/17/3 45/18/3 46/19/3
f 30/20/5 31/21/5 2/22/5 14/23/5
f 26/10/5 27/24/5 12/25/5 6/11/5
f 40/26/6 28/27/6 11/28/6 34/29/6
f 5/12/4 6/11/4 12/30/4 11/31/4
f 35/32/2 33/33/2 10/6/2 9/5/2
f 3/4/2 4/3/2 15/34/2 13/35/2
f 32/9/3 5/12/3 48/36/3 56/37/3
f 39/38/5 30/20/5 14/23/5 36/39/5
f 34/40/4 36/41/4 14/14/4 16/13/4
f 33/42/5 15/43/5 24/44/5 37/45/5
f 28/27/2 32/9/2 56/37/2 50/46/2
f 35/47/6 9/48/6 22/49/6 38/50/6
f 8/7/5 10/51/5 21/52/5 20/53/5
f 15/43/5 4/54/5 18/55/5 24/44/5
f 17/1/1 3/4/1 44/56/1 53/57/1
f 7/8/3 8/7/3 20/53/3 19/17/3
f 25/58/1 31/59/1 18/2/1 17/1/1
f 1/60/1 2/61/1 31/59/1 25/58/1
f 37/45/5 24/44/5 30/20/5 39/38/5
f 17/62/6 23/63/6 29/64/6 25/65/6
f 38/50/6 22/49/6 28/27/6 40/26/6
f 20/53/5 21/52/5 27/24/5 26/10/5
f 24/44/5 18/55/5 31/21/5 30/20/5
f 22/49/6 19/17/6 32/9/6 28/27/6
f 19/17/3 20/53/3 26/10/3 32/9/3
f 23/63/6 38/50/6 40/26/6 29/64/6
f 21/52/5 37/45/5 39/38/5 27/24/5
f 13/66/6 35/47/6 38/50/6 23/63/6
f 10/51/5 33/42/5 37/45/5 21/52/5
f 11/31/4 12/30/4 36/41/4 34/40/4
f 27/24/5 39/38/5 36/39/5 12/25/5
f 13/35/2 15/34/2 33/33/2 35/32/2
f 29/64/6 40/26/6 34/29/6 16/67/6
f 50/46/6 56/37/6 48/36/6 47/68/6
f 41/69/6 52/70/6 51/71/6 42/72/6
f 44/73/6 43/74/6 55/75/6 53/76/6
f 49/77/6 46/19/6 45/18/6 54/78/6
f 1/60/1 25/58/1 41/79/1 42/80/1
f 23/63/4 17/62/4 53/76/4 55/75/4
f 16/13/4 1/16/4 42/81/4 51/82/4
f 25/65/2 29/64/2 52/70/2 41/69/2
f 11/28/1 28/27/1 50/46/1 47/68/1
f 5/12/4 11/31/4 47/83/4 48/36/4
f 29/64/3 16/67/3 51/71/3 52/70/3
f 22/49/1 9/48/1 49/77/1 54/78/1
f 3/4/2 13/35/2 43/84/2 44/56/2
f 19/17/4 22/49/4 54/78/4 45/18/4
f 13/66/3 23/63/3 55/75/3 43/74/3
f 9/5/2 7/8/2 46/19/2 49/85/2
