# Blender v2.90.0 OBJ File: 'chatimprovr_demo_room.blend'
# www.blender.org
mtllib tv_br.mtl
o tv_Cube.036
v -28.214310 4.290005 24.360132
v -28.214310 8.888635 24.360132
v -28.214310 4.290005 17.619993
v -28.214310 8.888635 17.619993
v -27.711025 4.290005 24.360132
v -27.711025 8.888635 24.360132
v -27.711025 4.290005 17.619993
v -27.711025 8.888635 17.619993
v -27.712479 8.613082 18.023867
v -27.712479 4.565557 18.023867
v -27.712479 4.565557 23.956259
v -27.712479 8.613082 23.956259
v -27.735140 8.613082 18.023867
v -27.735140 4.565557 18.023867
v -27.735140 4.565557 23.956259
v -27.735140 8.613082 23.956259
vt 0.375000 0.000000
vt 0.625000 0.000000
vt 0.625000 0.250000
vt 0.375000 0.250000
vt 0.625000 0.500000
vt 0.375000 0.500000
vt 0.625000 0.750000
vt 0.375000 0.750000
vt 0.375000 0.750000
vt 0.625000 0.750000
vt 0.625000 1.000000
vt 0.375000 1.000000
vt 0.125000 0.500000
vt 0.125000 0.750000
vt 0.875000 0.500000
vt 0.875000 0.750000
vt 0.375000 0.750000
vt 0.625000 0.750000
vt 0.375000 0.500000
vt 0.625000 0.500000
vt 0.375000 0.500000
vt 0.625000 0.500000
vn -1.0000 0.0000 0.0000
vn 0.0000 0.0000 -1.0000
vn 1.0000 0.0000 -0.0036
vn 0.0000 0.0000 1.0000
vn 0.0000 -1.0000 0.0000
vn 0.0000 1.0000 0.0000
vn 1.0000 0.0053 0.0000
vn 1.0000 -0.0053 0.0000
vn 1.0000 0.0000 0.0036
vn 1.0000 0.0000 0.0000
usemtl None
s off
f 1/1/1 2/2/1 4/3/1 3/4/1
f 3/4/2 4/3/2 8/5/2 7/6/2
f 6/7/3 5/8/3 11/9/3 12/10/3
f 5/8/4 6/7/4 2/11/4 1/12/4
f 3/13/5 7/6/5 5/8/5 1/14/5
f 8/5/6 4/15/6 2/16/6 6/7/6
f 12/10/2 11/9/2 15/17/2 16/18/2
f 5/8/7 7/6/7 10/19/7 11/9/7
f 8/5/8 6/7/8 12/10/8 9/20/8
f 7/6/9 8/5/9 9/20/9 10/19/9
f 14/21/10 13/22/10 16/18/10 15/17/10
f 11/9/6 10/19/6 14/21/6 15/17/6
f 9/20/5 12/10/5 16/18/5 13/22/5
f 10/19/4 9/20/4 13/22/4 14/21/4
